<svg xmlns="http://www.w3.org/2000/svg" width="193" height="59" viewBox="0 0 193 59"><g fill="#FFFFFF" fill-rule="evenodd"><path d="M0.1413953,42.5635 L5.3347697,18.1474273 L10.4560139,18.1474273 C17.2723178,18.1474273 19.2198332,23.2326064 17.5608386,31.2390586 C15.9739742,38.95699 13.0887662,42.5635 6.8495039,42.5635 L0.1413953,42.5635 Z M8.8330844,21.6096769 L5.1183791,39.1733806 L6.2724623,39.1733806 C9.8068421,39.1733806 11.8625528,37.9111021 13.2330266,31.0947982 C14.7116957,23.7375178 13.6297427,21.6096769 9.6986468,21.6096769 L8.8330844,21.6096769 Z M23.7279707,18.1474273 L27.9836525,18.1474273 L22.7902781,42.5635 L18.5345963,42.5635 L23.7279707,18.1474273 Z M37.7212295,36.3242377 L31.9868786,36.3242377 L29.4262565,42.5635 L25.1345096,42.5635 L35.6655188,18.1474273 L41.3998697,18.1474273 L41.868716,42.5635 L37.7212295,42.5635 L37.7212295,36.3242377 Z M33.4655477,32.7177277 L37.6490993,32.7177277 C37.6130342,28.1013949 37.6851644,23.8457131 37.7933597,21.5014816 L37.6851644,21.5014816 C36.9638624,23.809648 35.3409329,27.9210694 33.4655477,32.7177277 Z M44.393273,35.9275216 L48.4686293,35.9275216 C48.4686293,37.4783209 49.0096058,39.5340316 51.3899024,39.5340316 C52.9767668,39.5340316 54.0587198,38.6324041 54.3833057,36.9373444 C54.7078916,35.1340894 54.2029802,33.6193552 51.5702279,31.5275794 C47.8915877,28.6063063 46.5932441,26.4063352 47.1702857,23.1965413 C47.7112622,20.0949427 49.8751682,17.7507112 53.8423292,17.7507112 C60.0094613,17.7507112 60.5143727,22.6194997 60.3701123,24.4588198 L56.294756,24.4588198 C56.294756,23.4850621 56.1144305,21.1768957 53.6980688,21.1768957 C52.2193997,21.1768957 51.4259675,22.0785232 51.1735118,23.448997 C50.9210561,24.891601 51.3538373,25.9374889 54.13085,28.0292647 C58.3865318,31.2751237 59.3242244,33.7996807 58.5307922,37.514386 C57.8455553,40.5077893 55.573454,42.9962812 51.3899024,42.9962812 C45.2227703,42.9962812 44.1768824,38.8127296 44.393273,35.9275216 Z M60.3701123,42.5635 L65.5634867,18.1474273 L71.2978376,18.1474273 C76.8879281,18.1474273 79.0878992,21.6818071 78.0059462,26.694856 C76.9961234,31.3111888 73.606004,32.9341183 69.5306477,32.9341183 L66.6454397,32.9341183 L64.6257941,42.5635 L60.3701123,42.5635 Z M69.0618014,21.6818071 L67.4388719,29.3997385 L69.8191685,29.3997385 C72.1273349,29.3997385 73.5338738,28.3538506 74.0027201,25.9374889 C74.4715664,23.4129319 73.5699389,21.6818071 71.081447,21.6818071 L69.0618014,21.6818071 Z M89.3303876,17.7507112 C94.9926083,17.7507112 96.9761888,22.1506534 94.9926083,31.4554492 C93.2614835,39.5340316 90.0156245,42.9962812 85.507487,42.9962812 C79.4846153,42.9962812 78.1141415,37.6586464 79.9534616,29.2554781 C81.540326,21.9342628 84.7140548,17.7507112 89.3303876,17.7507112 Z M89.2221923,21.3572212 C86.8058306,21.3572212 85.2910964,24.4948849 84.1370132,29.7964546 C82.98293,35.3144149 82.9107998,39.3897712 85.7599427,39.3897712 C87.9959789,39.3897712 89.3664527,37.1898001 90.7729916,30.9866029 C91.999205,25.4686426 92.359856,21.3572212 89.2221923,21.3572212 Z M104.838381,31.9964257 L102.530214,31.9964257 L100.330243,42.5635 L96.0745613,42.5635 L101.267936,18.1474273 L107.795719,18.1474273 C113.313679,18.1474273 115.044804,21.6096769 114.107111,25.7210983 C113.313679,29.1112177 111.185838,30.0849754 109.707169,30.5177566 C111.294033,31.3111888 112.123531,32.9701834 111.402229,36.6127585 C110.825187,39.678292 110.536666,41.1569611 110.464536,42.5635 L106.38918,42.5635 C106.353115,41.481547 106.641636,39.5340316 107.254742,36.5766934 C107.903914,33.2226391 107.399003,31.9964257 104.838381,31.9964257 Z M104.76625,21.645742 L103.287581,28.5341761 L105.343292,28.5341761 C107.723589,28.5341761 109.310453,27.9571345 109.815364,25.5047077 C110.284211,23.2686715 109.418648,21.645742 106.894091,21.645742 L104.76625,21.645742 Z M125.070902,36.3242377 L119.336551,36.3242377 L116.775929,42.5635 L112.484182,42.5635 L123.015191,18.1474273 L128.749542,18.1474273 L129.218388,42.5635 L125.070902,42.5635 L125.070902,36.3242377 Z M120.81522,32.7177277 L124.998772,32.7177277 C124.962706,28.1013949 125.034837,23.8457131 125.143032,21.5014816 L125.034837,21.5014816 C124.313535,23.809648 122.690605,27.9210694 120.81522,32.7177277 Z"/><g fill-rule="nonzero" transform="translate(135)"><circle cx="29.1" cy="29.7" r="3.7"/><path d="M34.8 38.7C34.8 37.9 35.1 37 35.7 36.4 37 35.1 39 35.1 40.3 36.4L56.8 52.9C58.1 54.2 58.1 56.2 56.8 57.5 55.5 58.8 53.5 58.8 52.2 57.5L35.7 41C35.1 40.4 34.8 39.5 34.8 38.7zM.3 4.2C.3 3.4.6 2.5 1.2 1.9 2.5.6 4.5.6 5.8 1.9L22.3 18.4C23.6 19.7 23.6 21.7 22.3 23 21 24.3 19 24.3 17.7 23L1.2 6.5C.6 5.9.3 5.1.3 4.2zM.3 55.2C.3 54.4.6 53.5 1.2 52.9L17.7 36.4C19 35.1 21 35.1 22.3 36.4 23.6 37.7 23.6 39.7 22.3 41L5.8 57.5C4.5 58.8 2.5 58.8 1.2 57.5.6 56.9.3 56.1.3 55.2zM34.9 20.7C34.9 19.9 35.2 19 35.8 18.4L52.3 1.9C53.6.6 55.6.6 56.9 1.9 58.2 3.2 58.2 5.2 56.9 6.5L40.4 23C39.1 24.3 37.1 24.3 35.8 23 35.2 22.3 34.9 21.5 34.9 20.7z"/></g></g></svg>
